<svg id="Layer_1" data-name="Layer 1" xmlns="http://www.w3.org/2000/svg" viewBox="0 0 367.47 368.84"><defs><style>.cls-1,.cls-2{fill-rule:evenodd;}.cls-2,.cls-3{fill:#fff;}</style></defs><title>AUTOGRAPH LOGO [Converted]</title><path class="cls-1" d="M142.42,24c-.64.07-1.08-.14-1.15-.57A.87.87,0,0,1,142.42,24Z" transform="translate(-37.2 -23.34)"/><path class="cls-2" d="M404.36,313.32c-2.3,25-22.68,38.3-41.9,50.69-15.84,10.15-41.55,23.18-65.74,22.17-30.46-1.22-35.71-22.82-49-25.84-22.75-5.26-56.95,22-95.9,29.44-34.28,6.63-57.32-1.44-76.18-12.74-24.05-14.47-31.9-31.1-36.29-48.38-7.27-28.88,3.82-59.84,29.45-86.33,17.86-18.43,49.61-31.25,73.87-48,19-13,32.55-30.81,34.63-42,2.38-12.68-9.36-17-35.2,3.52-10.16,8.07-18.51,14.33-26.36,16.13-17.28,3.82-18.28-.57-23.9-6C70.93,145.85,81.8,120.79,108.3,98.47a175.58,175.58,0,0,1,25.12-17.64c20.6-12,45.29-21.6,70.49-25C242,50.52,280.52,61,309.39,85.22c29,24.41,37.87,63.51,54.29,101.09C383.55,231.67,407.67,276.74,404.36,313.32Z" transform="translate(-37.2 -23.34)"/><path class="cls-2" d="M226.59,308.71c-14.18-3.67-55.44,22.9-86.9,31.18-18.79,4.89-34.49,2.52-37.51-14.83a13.67,13.67,0,0,1,.93-6.2c2.45-7.2,8.57-17.13,10.37-25.92s-2.3-19.15,1.44-31.24c4.18-13.68,16.06-23.19,31-32.26,4.46-2.74,9.14-5.4,14-8.14s9.94-5.54,15-8.56a13.88,13.88,0,0,0,1.72-1.3c.65-.5,1.23-1,1.8-1.37,9.36-5.76,20.74-11.37,32.48-18.21,17.06-9.94,42.48-29.38,52.63-2.16,3.24,8.56,6.48,18.28-11.09,31.6-9.86,7.56-35.21,17.64-55.22,30.68-29.24,19-50.4,40.39-22.76,36.43,13.54-2,35.79-12.31,40.54-14.62,1.73-.93,4-5.47,8.35-10.37s6.19-12,10.37-15.69c29.52-26.43,78.91,17.13,76.68,42.62-1.15,13.83-33.48,40.61-47.09,38.23C256.76,327.43,236.24,311.23,226.59,308.71Z" transform="translate(-37.2 -23.34)"/><path class="cls-3" d="M335.6,56.93V29.35h-9.79V23.74h26.35v5.61h-9.79V56.93Zm20.81,0V23.74h10l6,22.6,6-22.6h10.08V56.93h-6.27V30.79l-6.55,26.14h-6.48L362.6,30.79V56.93Z" transform="translate(-37.2 -23.34)"/></svg>